:FULLY-SPECIFIED
:FORCE-ALL-JOINTS-BE-3DOF
:DEGREES
102
root 7.30597 16.6842 -26.7683 3.24495 11.1728 -4.79818
lfemur -26.8493 -4.64242 -9.32918
ltibia 39.4929 -0 0
lfoot -17.2707 -2.5481 -0.132212
ltoes 16.6513 -0 0
rfemur -30.3701 -8.30814 9.21699
rtibia 66.3867 -0 0
rfoot -0.453933 5.88437 0.870679
rtoes -12.6019 0 0
lowerback 1.47048 1.67554 1.78664
upperback -0.870971 2.33701 1.99881
thorax -1.66349 1.14942 1.11579
lowerneck -10.3684 -4.75386 2.34003
upperneck -1.24089 -6.58759 0.849549
head 1.30345 -3.26774 -0.396426
lclavicle 9.49041e-15 -1.23122e-14 0
lhumerus -45.3477 -8.43553 92.6517
lradius 47.0928 -0 0
lwrist 13.7106 0 0
lhand 4.87107 5.91745 0.0075215
lfingers 7.12502 -0 0
lthumb 30.2454 33.4454 0.00210347
rclavicle 9.49041e-15 -1.23122e-14 0
rhumerus -42.6686 0.613084 -73.5567
rradius 51.246 -0 0
rwrist 3.72705 0 0
rhand -17.9097 -14.9989 0.115171
rfingers 7.12502 -0 0
rthumb 8.35655 -44.7846 0.114609
103
root 7.33986 16.6999 -26.7508 2.56821 11.5983 -4.63995
lfemur -25.8686 -4.25414 -9.8019
ltibia 38.9999 -0 0
lfoot -16.9644 -3.44802 -0.144248
ltoes 18.2556 -0 0
rfemur -32.5808 -7.27389 7.74858
rtibia 69.3905 -0 0
rfoot 2.70183 6.46457 0.951087
rtoes -9.22692 0 0
lowerback 2.10471 1.4127 1.62358
upperback -0.611804 1.99839 2.05285
thorax -1.75155 0.981145 1.27089
lowerneck -10.4503 -4.72868 2.27251
upperneck -1.0862 -6.55064 0.807298
head 1.36966 -3.24827 -0.402643
lclavicle 9.49041e-15 -1.23122e-14 0
lhumerus -45.1327 -8.94388 92.7395
lradius 47.1126 -0 0
lwrist 13.6195 0 0
lhand 5.11807 5.9809 0.00820534
lfingers 7.12502 -0 0
lthumb 30.4809 33.464 0.00229471
rclavicle 9.49041e-15 -1.23122e-14 0
rhumerus -42.7462 0.847718 -72.7188
rradius 51.3548 -0 0
rwrist 4.95751 0 0
rhand -18.3915 -15.4972 0.125649
rfingers 7.12502 -0 0
rthumb 7.89151 -45.2983 0.125035
104
root 7.37374 16.7156 -26.7334 1.89162 12.0255 -4.48662
lfemur -24.8915 -3.85787 -10.2677
ltibia 38.5069 -0 0
lfoot -16.6579 -4.34799 -0.15147
ltoes 19.8598 -0 0
rfemur -34.8128 -6.29681 6.2442
rtibia 72.3942 -0 0
rfoot 5.85831 7.04832 0.999434
rtoes -5.85196 0 0
lowerback 2.73962 1.15168 1.45764
upperback -0.353005 1.65952 2.10535
thorax -1.84007 0.813106 1.42625
lowerneck -10.5322 -4.7036 2.20494
upperneck -0.931557 -6.51358 0.76515
head 1.43586 -3.22878 -0.408837
lclavicle 9.49041e-15 -1.23122e-14 0
lhumerus -44.9182 -9.45255 92.8255
lradius 47.1325 -0 0
lwrist 13.5284 0 0
lhand 5.36507 6.04435 0.00861565
lfingers 7.12502 -0 0
lthumb 30.7163 33.4826 0.00240945
rclavicle 9.49041e-15 -1.23122e-14 0
rhumerus -42.8203 1.08346 -71.8812
rradius 51.4636 -0 0
rwrist 6.18797 0 0
rhand -18.8733 -15.9956 0.131936
rfingers 7.12502 -0 0
rthumb 7.4264 -45.8121 0.131292
105
root 7.40763 16.7312 -26.716 1.21511 12.4545 -4.33821
lfemur -23.9182 -3.45375 -10.7264
ltibia 38.0139 -0 0
lfoot -16.3513 -5.24799 -0.153878
ltoes 21.464 -0 0
rfemur -37.0661 -5.37894 4.70528
rtibia 75.398 -0 0
rfoot 9.01515 7.63386 1.01557
rtoes -2.477 0 0
lowerback 3.37524 0.89251 1.28883
upperback -0.0945569 1.32041 2.15631
thorax -1.92903 0.645307 1.58185
lowerneck -10.6141 -4.67861 2.13735
upperneck -0.776949 -6.4764 0.723107
head 1.50207 -3.20929 -0.415009
lclavicle 9.49041e-15 -1.23122e-14 0
lhumerus -44.7042 -9.96154 92.9096
lradius 47.1523 -0 0
lwrist 13.4374 0 0
lhand 5.61208 6.10781 0.00875242
lfingers 7.12502 -0 0
lthumb 30.9518 33.5012 0.0024477
rclavicle 9.49041e-15 -1.23122e-14 0
rhumerus -42.891 1.32026 -71.0438
rradius 51.5723 -0 0
rwrist 7.41843 0 0
rhand -19.3551 -16.494 0.134032
rfingers 7.12502 -0 0
rthumb 6.96126 -46.3259 0.133378
106
root 7.44152 16.7469 -26.6986 0.538598 12.8852 -4.19477
lfemur -22.9485 -3.04192 -11.178
ltibia 37.5208 -0 0
lfoot -16.0447 -6.14799 -0.15147
ltoes 23.0683 -0 0
rfemur -39.3402 -4.52225 3.13342
rtibia 78.4017 -0 0
rfoot 12.172 8.21939 0.999434
rtoes 0.897963 -0 0
lowerback 4.01158 0.635232 1.11716
upperback 0.163559 0.981086 2.20573
thorax -2.01845 0.47775 1.73772
lowerneck -10.696 -4.65372 2.06972
upperneck -0.62238 -6.43911 0.681168
head 1.56826 -3.18979 -0.421158
lclavicle 9.49041e-15 -1.23122e-14 0
lhumerus -44.4906 -10.4708 92.992
lradius 47.1721 -0 0
lwrist 13.3463 0 0
lhand 5.85908 6.17126 0.00861565
lfingers 7.12502 -0 0
lthumb 31.1872 33.5198 0.00240945
rclavicle 9.49041e-15 -1.23122e-14 0
rhumerus -42.9582 1.55807 -70.2066
rradius 51.6811 -0 0
rwrist 8.64889 0 0
rhand -19.837 -16.9924 0.131936
rfingers 7.12502 -0 0
rthumb 6.49611 -46.8396 0.131292
107
root 7.4754 16.7626 -26.6811 -0.13799 13.3175 -4.0563
lfemur -21.9824 -2.62253 -11.6224
ltibia 37.0278 -0 0
lfoot -15.7382 -7.04796 -0.144248
ltoes 24.6725 -0 0
rfemur -41.6346 -3.72867 1.53037
rtibia 81.4055 -0 0
rfoot 15.3285 8.80314 0.951087
rtoes 4.27292 -0 0
lowerback 4.64866 0.379877 0.942658
upperback 0.42136 0.641538 2.25362
thorax -2.10833 0.310438 1.89384
lowerneck -10.7779 -4.62893 2.00206
upperneck -0.46785 -6.40171 0.639333
head 1.63446 -3.17029 -0.427284
lclavicle 9.49041e-15 -1.23122e-14 0
lhumerus -44.2773 -10.9804 93.0726
lradius 47.1919 -0 0
lwrist 13.2552 0 0
lhand 6.10608 6.23471 0.00820534
lfingers 7.12502 -0 0
lthumb 31.4226 33.5384 0.00229471
rclavicle 9.49041e-15 -1.23122e-14 0
rhumerus -43.022 1.79683 -69.3696
rradius 51.7899 -0 0
rwrist 9.87935 0 0
rhand -20.3188 -17.4908 0.125649
rfingers 7.12502 -0 0
rthumb 6.031 -47.3534 0.125035
108
root 7.50929 16.7783 -26.6637 -0.814733 13.7513 -3.92285
lfemur -21.0199 -2.19574 -12.0595
ltibia 36.5348 -0 0
lfoot -15.4319 -7.94788 -0.132212
ltoes 26.2767 -0 0
rfemur -43.9486 -3.00001 -0.101957
rtibia 84.4092 -0 0
rfoot 18.4842 9.38334 0.870679
rtoes 7.64789 -0 0
lowerback 5.2865 0.126479 0.765327
upperback 0.678865 0.301779 2.29998
thorax -2.19865 0.143371 2.05022
lowerneck -10.8599 -4.60423 1.93436
upperneck -0.313359 -6.3642 0.597603
head 1.70065 -3.15078 -0.433387
lclavicle 9.49041e-15 -1.23122e-14 0
lhumerus -44.0645 -11.4903 93.1514
lradius 47.2118 -0 0
lwrist 13.1641 0 0
lhand 6.35308 6.29816 0.0075215
lfingers 7.12502 -0 0
lthumb 31.6581 33.557 0.00210347
rclavicle 9.49041e-15 -1.23122e-14 0
rhumerus -43.0823 2.0365 -68.5327
rradius 51.8987 -0 0
rwrist 11.1098 0 0
rhand -20.8006 -17.9891 0.115171
rfingers 7.12502 -0 0
rthumb 5.56596 -47.8671 0.114609
109
root 7.54318 16.794 -26.6463 -1.49171 14.1867 -3.79444
lfemur -20.061 -1.76168 -12.4892
ltibia 36.0418 -0 0
lfoot -15.1258 -8.84772 -0.115366
ltoes 27.881 -0 0
rfemur -46.2811 -2.33801 -1.76146
rtibia 87.413 -0 0
rfoot 21.6389 9.95821 0.758461
rtoes 11.0228 -0 0
lowerback 5.92513 -0.124927 0.585186
upperback 0.936091 -0.0381855 2.34481
thorax -2.28944 -0.0234484 2.20686
lowerneck -10.9419 -4.57963 1.86663
upperneck -0.158907 -6.32657 0.555978
head 1.76684 -3.13126 -0.439468
lclavicle 9.49041e-15 -1.23122e-14 0
lhumerus -43.8519 -12.0005 93.2284
lradius 47.2316 -0 0
lwrist 13.073 0 0
lhand 6.60008 6.3616 0.00656414
lfingers 7.12502 -0 0
lthumb 31.8935 33.5757 0.00183574
rclavicle 9.49041e-15 -1.23122e-14 0
rhumerus -43.139 2.27703 -67.696
rradius 52.0074 -0 0
rwrist 12.3403 0 0
rhand -21.2822 -18.4873 0.100504
rfingers 7.12502 -0 0
rthumb 5.10104 -48.3807 0.100014
110
root 7.57706 16.8097 -26.6289 -2.169 14.6235 -3.67111
lfemur -19.1055 -1.32051 -12.9116
ltibia 35.5488 -0 0
lfoot -14.82 -9.74746 -0.0937157
ltoes 29.4852 -0 0
rfemur -48.6309 -1.74429 -3.4459
rtibia 90.4167 -0 0
rfoot 24.7923 10.526 0.614787
rtoes 14.3978 -0 0
lowerback 6.56455 -0.374309 0.402251
upperback 1.19306 -0.378348 2.38812
thorax -2.38068 -0.190019 2.36377
lowerneck -11.024 -4.55513 1.79887
upperneck -0.00449332 -6.28884 0.514458
head 1.83302 -3.11173 -0.445526
lclavicle 9.49041e-15 -1.23122e-14 0
lhumerus -43.6397 -12.5109 93.3036
lradius 47.2514 -0 0
lwrist 12.9819 0 0
lhand 6.84708 6.42504 0.00533328
lfingers 7.12502 -0 0
lthumb 32.129 33.5943 0.00149152
rclavicle 9.49041e-15 -1.23122e-14 0
rhumerus -43.1923 2.51836 -66.8593
rradius 52.1162 -0 0
rwrist 13.5707 0 0
rhand -21.7637 -18.9853 0.0816506
rfingers 7.12502 -0 0
rthumb 4.63626 -48.8942 0.0812523
111
root 7.61095 16.8254 -26.6115 -2.84669 15.0616 -3.55288
lfemur -18.1535 -0.872373 -13.3264
ltibia 35.0557 -0 0
lfoot -14.5145 -10.6471 -0.0672661
ltoes 31.0894 -0 0
rfemur -50.9965 -1.22032 -5.15284
rtibia 93.4205 -0 0
rfoot 27.944 11.0851 0.440106
rtoes 17.7728 -0 0
lowerback 7.20479 -0.621632 0.216537
upperback 1.44978 -0.7187 2.4299
thorax -2.47237 -0.356338 2.52095
lowerneck -11.106 -4.53072 1.73108
upperneck 0.149881 -6.25099 0.473043
head 1.89921 -3.0922 -0.451561
lclavicle 9.49041e-15 -1.23122e-14 0
lhumerus -43.4277 -13.0216 93.377
lradius 47.2712 -0 0
lwrist 12.8909 0 0
lhand 7.09408 6.48847 0.00382895
lfingers 7.12502 -0 0
lthumb 32.3644 33.6129 0.00107082
rclavicle 9.49041e-15 -1.23122e-14 0
rhumerus -43.242 2.76044 -66.0227
rradius 52.225 -0 0
rwrist 14.8012 0 0
rhand -22.2451 -19.4832 0.0586131
rfingers 7.12502 -0 0
rthumb 4.17167 -49.4075 0.0583271
112
root 7.64483 16.8411 -26.594 -3.52486 15.5011 -3.43979
lfemur -17.2048 -0.417417 -13.7338
ltibia 34.5627 -0 0
lfoot -14.2096 -11.5465 -0.0360247
ltoes 32.6937 -0 0
rfemur -53.3763 -0.767448 -6.87969
rtibia 96.4242 -0 0
rfoot 31.0938 11.6336 0.234964
rtoes 21.1477 -0 0
lowerback 7.84586 -0.866864 0.0280601
upperback 1.70628 -1.05924 2.47016
thorax -2.56453 -0.522406 2.67839
lowerneck -11.1881 -4.50641 1.66325
upperneck 0.304218 -6.21303 0.431735
head 1.96538 -3.07266 -0.457574
lclavicle 9.49041e-15 -1.23122e-14 0
lhumerus -43.2159 -13.5326 93.4487
lradius 47.2911 -0 0
lwrist 12.7998 0 0
lhand 7.34108 6.5519 0.00205118
lfingers 7.12502 -0 0
lthumb 32.5999 33.6315 0.00057364
rclavicle 9.49041e-15 -1.23122e-14 0
rhumerus -43.2882 3.00321 -65.1862
rradius 52.3337 -0 0
rwrist 16.0316 0 0
rhand -22.7262 -19.9809 0.0313949
rfingers 7.12502 -0 0
rthumb 3.70731 -49.9205 0.0312417
